<?xml version="1.0" encoding="utf-8"?>
<!-- Generator: Adobe Illustrator 26.0.3, SVG Export Plug-In . SVG Version: 6.00 Build 0)  -->
<svg version="1.0" id="Layer_1" xmlns="http://www.w3.org/2000/svg" xmlns:xlink="http://www.w3.org/1999/xlink" x="0px" y="0px"
	 viewBox="0 0 1071.2 818.8" style="enable-background:new 0 0 1071.2 818.8;" xml:space="preserve">
<style type="text/css">
	.st0{fill:#FFFB00;}
	.st1{fill:none;}
</style>
<g id="Page-1">
	<g id="Desktop-HD">
		<g id="Group">
			<g id="Group-2">
				<path id="Rectangle" class="st0" d="M489.6,92.4h92c84.8,0,122.6,10.2,158.4,29.4c35.4,18.7,64.4,47.7,83.2,83.2
					c19.2,35.8,29.4,73.6,29.4,158.5v92c0,84.8-10.2,122.6-29.4,158.4c-18.7,35.4-47.7,64.4-83.2,83.2
					c-35.8,19.2-73.6,29.4-158.5,29.4h-92c-84.8,0-122.6-10.2-158.4-29.4c-35.4-18.7-64.4-47.7-83.2-83.2
					c-19.2-35.8-29.4-73.6-29.4-158.5v-92c0-84.8,10.2-122.6,29.4-158.4c18.7-35.4,47.7-64.4,83.2-83.2
					C367,102.6,404.7,92.4,489.6,92.4z"/>
				<path id="YOLO" d="M384,467.6h-33.5v-36.1l-38.9-77.9h35.8l20,46.2h0.6l20-46.2h35L384,431.5L384,467.6z M487.8,351.7
					c35.2,0,57.4,22.6,57.4,59s-22.2,58.9-57.4,58.9s-57.4-22.5-57.4-58.9S452.6,351.7,487.8,351.7z M487.8,378.4
					c-14,0-23.3,12.5-23.3,32.3s9.2,32.2,23.3,32.2s23.3-12.5,23.3-32.2S501.8,378.4,487.8,378.4L487.8,378.4z M636.4,441v26.6
					h-78.2v-114h33.5v87.3L636.4,441z M703.7,351.7c35.2,0,57.4,22.6,57.4,59s-22.2,58.9-57.4,58.9s-57.4-22.5-57.4-58.9
					S668.5,351.7,703.7,351.7z M703.7,378.4c-14,0-23.3,12.5-23.3,32.3s9.2,32.2,23.3,32.2s23.3-12.6,23.3-32.2
					S717.7,378.4,703.7,378.4L703.7,378.4z"/>
			</g>
		</g>
	</g>
</g>
<rect x="193.1" y="66.9" class="st1" width="685" height="685"/>
</svg>
